<svg xmlns="http://www.w3.org/2000/svg" viewBox="0 0 1200 760" font-family="ui-sans-serif, system-ui, -apple-system, 'Segoe UI', Roboto, sans-serif">
  <rect width="1200" height="760" fill="#ffffff"/>
  <rect x="16" y="16" width="1168" height="728" rx="16" fill="#ffffff" stroke="#e7e5e4" stroke-width="1.5"/>
  <circle cx="52" cy="44" r="6.5" fill="#f87171"/>
  <circle cx="74" cy="44" r="6.5" fill="#fbbf24"/>
  <circle cx="96" cy="44" r="6.5" fill="#34d399"/>
  <rect x="150" y="31" width="560" height="26" rx="13" fill="#f5f5f4"/>
  <text x="172" y="49" font-size="14" fill="#78716c">claude.ai</text>
  <line x1="16" y1="76" x2="1184" y2="76" stroke="#e7e5e4" stroke-width="1.5"/>

  <!-- greeting -->
  <text x="600" y="316" font-size="30" fill="#c2410c" text-anchor="middle">✳</text>
  <text x="600" y="372" font-size="30" font-weight="600" fill="#1c1917" text-anchor="middle">What would you like to build?</text>

  <!-- message box -->
  <rect x="300" y="410" width="600" height="104" rx="18" fill="#ffffff" stroke="#e7e5e4" stroke-width="1.5"/>
  <text x="328" y="452" font-size="16" fill="#a8a29e">Describe your tool in plain words…</text>
  <circle cx="864" cy="484" r="18" fill="#185FA5"/>
  <path d="M857 484 h14 M865 478 l6 6 l-6 6" fill="none" stroke="#ffffff" stroke-width="2.5" stroke-linecap="round" stroke-linejoin="round"/>

  <!-- suggestion chips -->
  <rect x="366" y="546" width="176" height="38" rx="19" fill="#f8fafc" stroke="#e7e5e4" stroke-width="1.5"/>
  <text x="454" y="570" font-size="14" fill="#57534e" text-anchor="middle">A welcome page</text>
  <rect x="558" y="546" width="140" height="38" rx="19" fill="#f8fafc" stroke="#e7e5e4" stroke-width="1.5"/>
  <text x="628" y="570" font-size="14" fill="#57534e" text-anchor="middle">A quiz</text>
  <rect x="714" y="546" width="176" height="38" rx="19" fill="#f8fafc" stroke="#e7e5e4" stroke-width="1.5"/>
  <text x="802" y="570" font-size="14" fill="#57534e" text-anchor="middle">A flashcard site</text>
</svg>
